<svg xmlns="http://www.w3.org/2000/svg" xmlns:svg="http://www.w3.org/2000/svg" id="svg2" width="100%" height="100%" version="1.1"><metadata id="metadata174"/><g id="g3148"><rect id="rect3036" width="538.384" height="351.515" x="136.364" y="255.392" style="fill:#fff;fill-opacity:1;stroke:none"/><g id="g3301" transform="translate(691.91919,182.82828)"><text style="font-size:12px;font-weight:700;font-family:Verdana" id="text6" x="-109.596" y="133.838" font-size="12" font-weight="bold"><tspan style="fill:red" id="tspan8">Component A</tspan></text><text style="font-size:12px;font-weight:700;font-family:Verdana" id="text3233" x="-109.297" y="149.646" font-size="12" font-weight="bold"><tspan style="fill:#00f" id="tspan3235">Component B</tspan></text><text style="font-size:12px;font-weight:700;font-family:Verdana" id="text3240" x="-109.08" y="165.455" font-size="12" font-weight="bold"><tspan style="fill:green" id="tspan3242">Component C</tspan></text></g><text id="text3246" x="434.848" y="293.434" font-size="12" font-weight="bold" style="font-size:12px;font-weight:700;font-family:Verdana">Maturity</text><circle id="circle26" cx="500" cy="300" r="35" d="m 535,300 c 0,19.32997 -15.67003,35 -35,35 -19.32997,0 -35,-15.67003 -35,-35 0,-19.32997 15.67003,-35 35,-35 19.32997,0 35,15.67003 35,35 z" transform="translate(-109.59596,133.83838)" style="fill:none;stroke:#d3d3d3;stroke-width:1"/><text id="text28" x="400.404" y="448.838" font-size="12" style="font-size:12px;fill:#d3d3d3;font-family:Verdana">0.5</text><circle id="circle30" cx="500" cy="300" r="70" d="m 570,300 c 0,38.65993 -31.34007,70 -70,70 -38.65993,0 -70,-31.34007 -70,-70 0,-38.65993 31.34007,-70 70,-70 38.65993,0 70,31.34007 70,70 z" transform="translate(-109.59596,133.83838)" style="fill:none;stroke:#d3d3d3;stroke-width:1"/><text id="text32" x="445.404" y="448.838" font-size="12" style="font-size:12px;fill:#d3d3d3;font-family:Verdana">1</text><circle id="circle34" cx="500" cy="300" r="105" d="m 605,300 c 0,57.9899 -47.0101,105 -105,105 -57.9899,0 -105,-47.0101 -105,-105 0,-57.9899 47.0101,-105 105,-105 57.9899,0 105,47.0101 105,105 z" transform="translate(-109.59596,133.83838)" style="fill:none;stroke:#d3d3d3;stroke-width:1"/><text id="text36" x="470.404" y="448.838" font-size="12" style="font-size:12px;fill:#d3d3d3;font-family:Verdana">1.5</text><circle id="circle38" cx="500" cy="300" r="140" d="m 640,300 c 0,77.31986 -62.68014,140 -140,140 -77.31986,0 -140,-62.68014 -140,-140 0,-77.31986 62.68014,-140 140,-140 77.31986,0 140,62.68014 140,140 z" transform="translate(-109.59596,133.83838)" style="fill:none;stroke:#d3d3d3;stroke-width:1"/><text id="text40" x="515.404" y="448.838" font-size="12" style="font-size:12px;fill:#d3d3d3;font-family:Verdana">2</text><line id="line42" x1="390.404" x2="433.666" y1="433.838" y2="566.986" style="stroke:#d3d3d3;stroke-width:1"/><line id="line44" x1="390.404" x2="277.142" y1="433.838" y2="516.128" style="stroke:#d3d3d3;stroke-width:1"/><line id="line46" x1="390.404" x2="277.142" y1="433.838" y2="351.548" style="stroke:#d3d3d3;stroke-width:1"/><line id="line48" x1="390.404" x2="433.666" y1="433.838" y2="300.69" style="stroke:#d3d3d3;stroke-width:1"/><line id="line50" x1="390.404" x2="530.404" y1="433.838" y2="433.838" style="stroke:#d3d3d3;stroke-width:1"/><path id="path72" d="m 421.33664,529.03914 -101.72159,-43.76955 -4.53049,-106.15402 107.76626,-45.13812 60.65322,99.86093 z" style="fill:red;fill-opacity:.2;stroke:red;stroke-width:3"/><circle id="circle74" cx="500" cy="300" r="35" d="m 535,300 c 0,19.32997 -15.67003,35 -35,35 -19.32997,0 -35,-15.67003 -35,-35 0,-19.32997 15.67003,-35 35,-35 19.32997,0 35,15.67003 35,35 z" transform="translate(-109.59596,133.83838)" style="fill:none;stroke:#d3d3d3;stroke-width:1"/><text id="text76" x="400.404" y="448.838" font-size="12" style="font-size:12px;fill:#d3d3d3;font-family:Verdana">0.5</text><circle id="circle78" cx="500" cy="300" r="70" d="m 570,300 c 0,38.65993 -31.34007,70 -70,70 -38.65993,0 -70,-31.34007 -70,-70 0,-38.65993 31.34007,-70 70,-70 38.65993,0 70,31.34007 70,70 z" transform="translate(-109.59596,133.83838)" style="fill:none;stroke:#d3d3d3;stroke-width:1"/><text id="text80" x="445.404" y="448.838" font-size="12" style="font-size:12px;fill:#d3d3d3;font-family:Verdana">1</text><circle id="circle82" cx="500" cy="300" r="105" d="m 605,300 c 0,57.9899 -47.0101,105 -105,105 -57.9899,0 -105,-47.0101 -105,-105 0,-57.9899 47.0101,-105 105,-105 57.9899,0 105,47.0101 105,105 z" transform="translate(-109.59596,133.83838)" style="fill:none;stroke:#d3d3d3;stroke-width:1"/><text id="text84" x="470.404" y="448.838" font-size="12" style="font-size:12px;fill:#d3d3d3;font-family:Verdana">1.5</text><circle id="circle86" cx="500" cy="300" r="140" d="m 640,300 c 0,77.31986 -62.68014,140 -140,140 -77.31986,0 -140,-62.68014 -140,-140 0,-77.31986 62.68014,-140 140,-140 77.31986,0 140,62.68014 140,140 z" transform="translate(-109.59596,133.83838)" style="fill:none;stroke:#d3d3d3;stroke-width:1"/><text id="text88" x="515.404" y="448.838" font-size="12" style="font-size:12px;fill:#d3d3d3;font-family:Verdana">2</text><line id="line90" x1="390.404" x2="433.666" y1="433.838" y2="566.986" style="stroke:#d3d3d3;stroke-width:1"/><line id="line92" x1="390.404" x2="277.142" y1="433.838" y2="516.128" style="stroke:#d3d3d3;stroke-width:1"/><line id="line94" x1="390.404" x2="277.142" y1="433.838" y2="351.548" style="stroke:#d3d3d3;stroke-width:1"/><line id="line96" x1="390.404" x2="433.666" y1="433.838" y2="300.69" style="stroke:#d3d3d3;stroke-width:1"/><line id="line98" x1="390.404" x2="530.404" y1="433.838" y2="433.838" style="stroke:#d3d3d3;stroke-width:1"/><path id="path120" d="m 424.36501,538.35949 -104.74996,-53.0899 4.5305,-99.57082 87.88968,-18.43435 48.36881,66.57396 z" style="fill:#00f;fill-opacity:.2;stroke:#00f;stroke-width:3"/><circle id="circle122" cx="500" cy="300" r="35" d="m 535,300 c 0,19.32997 -15.67003,35 -35,35 -19.32997,0 -35,-15.67003 -35,-35 0,-19.32997 15.67003,-35 35,-35 19.32997,0 35,15.67003 35,35 z" transform="translate(-109.59596,133.83838)" style="fill:none;stroke:#d3d3d3;stroke-width:1"/><text id="text124" x="400.404" y="448.838" font-size="12" style="font-size:12px;fill:#d3d3d3;font-family:Verdana">0.5</text><circle id="circle126" cx="500" cy="300" r="70" d="m 570,300 c 0,38.65993 -31.34007,70 -70,70 -38.65993,0 -70,-31.34007 -70,-70 0,-38.65993 31.34007,-70 70,-70 38.65993,0 70,31.34007 70,70 z" transform="translate(-109.59596,133.83838)" style="fill:none;stroke:#d3d3d3;stroke-width:1"/><text id="text128" x="445.404" y="448.838" font-size="12" style="font-size:12px;fill:#d3d3d3;font-family:Verdana">1</text><circle id="circle130" cx="500" cy="300" r="105" d="m 605,300 c 0,57.9899 -47.0101,105 -105,105 -57.9899,0 -105,-47.0101 -105,-105 0,-57.9899 47.0101,-105 105,-105 57.9899,0 105,47.0101 105,105 z" transform="translate(-109.59596,133.83838)" style="fill:none;stroke:#d3d3d3;stroke-width:1"/><text id="text132" x="470.404" y="448.838" font-size="12" style="font-size:12px;fill:#d3d3d3;font-family:Verdana">1.5</text><circle id="circle134" cx="500" cy="300" r="140" d="m 640,300 c 0,77.31986 -62.68014,140 -140,140 -77.31986,0 -140,-62.68014 -140,-140 0,-77.31986 62.68014,-140 140,-140 77.31986,0 140,62.68014 140,140 z" transform="translate(-109.59596,133.83838)" style="fill:none;stroke:#d3d3d3;stroke-width:1"/><text id="text136" x="515.404" y="448.838" font-size="12" style="font-size:12px;fill:#d3d3d3;font-family:Verdana">2</text><line id="line138" x1="390.404" x2="433.666" y1="433.838" y2="566.986" style="stroke:#d3d3d3;stroke-width:1"/><line id="line140" x1="390.404" x2="277.142" y1="433.838" y2="516.128" style="stroke:#d3d3d3;stroke-width:1"/><line id="line142" x1="390.404" x2="277.142" y1="433.838" y2="351.548" style="stroke:#d3d3d3;stroke-width:1"/><line id="line144" x1="390.404" x2="433.666" y1="433.838" y2="300.69" style="stroke:#d3d3d3;stroke-width:1"/><line id="line146" x1="390.404" x2="530.404" y1="433.838" y2="433.838" style="stroke:#d3d3d3;stroke-width:1"/><path id="path168" d="m 421.33664,529.03914 -101.72159,-43.76955 4.5305,-99.57082 98.70527,-51.72132 60.65322,99.86093 z" style="fill:green;fill-opacity:.2;stroke:green;stroke-width:3"/><text id="text3246-4" x="536.893" y="432.939" font-size="12" font-weight="bold" style="font-size:12px;font-weight:700;font-family:Verdana">Functional axis 1</text><text id="text3246-4-7" x="439.492" y="581.09" font-size="12" font-weight="bold" style="font-size:12px;font-weight:700;font-family:Verdana">Functional axis 2</text><text id="text3246-4-4" x="152.623" y="527.555" font-size="12" font-weight="bold" style="font-size:12px;font-weight:700;font-family:Verdana">Functional axis 3</text><text id="text3246-4-43" x="154.643" y="348.767" font-size="12" font-weight="bold" style="font-size:12px;font-weight:700;font-family:Verdana">Functional axis 4</text></g></svg>