<svg xmlns="http://www.w3.org/2000/svg" xmlns:svg="http://www.w3.org/2000/svg" xmlns:xlink="http://www.w3.org/1999/xlink" id="svg2" width="100%" height="100%" version="1.1"><metadata id="metadata76"/><defs id="defs4"><linearGradient id="gradientBase"><stop style="stop-color:#fff;stop-opacity:1" id="stop7" offset="0"/><stop style="stop-color:#a7e5e5;stop-opacity:1" id="stop9" offset="1"/></linearGradient><marker id="Arrow2Mend" orient="270" refX="0" refY="0" style="overflow:visible"><path style="font-size:12;stroke-width:.6" id="path12" d="M 8,4 L -2,0 L 8,-4 C 6.9,-2 7,2 8,4 z" transform="scale(0.6) rotate(180) translate(0,0)"/></marker><marker id="Arrow2Lend" orient="0" refX="0" refY="0" style="overflow:visible"><path style="font-size:12;stroke-width:.6" id="path15" d="M 8,4 L -2,0 L 8,-4 C 6.9,-2 7,2 8,4 z" transform="scale(0.6) rotate(180) translate(1,0)"/></marker><linearGradient id="gradient" x1="280" x2="280" y1="157" y2="487" gradientTransform="translate(-2,-28)" gradientUnits="userSpaceOnUse" xlink:href="#gradientBase"/><linearGradient id="linearGradient3080" x1="280" x2="280" y1="157" y2="487" gradientTransform="translate(-2,-28)" gradientUnits="userSpaceOnUse" xlink:href="#gradientBase"/><linearGradient id="linearGradient3108" x1="280" x2="280" y1="157" y2="487" gradientTransform="translate(-2,-28)" gradientUnits="userSpaceOnUse" xlink:href="#gradientBase"/><linearGradient id="linearGradient3135" x1="280" x2="280" y1="157" y2="487" gradientTransform="translate(98,172)" gradientUnits="userSpaceOnUse" xlink:href="#gradientBase"/><linearGradient id="linearGradient3165" x1="280" x2="280" y1="157" y2="487" gradientTransform="translate(98,172)" gradientUnits="userSpaceOnUse" xlink:href="#gradientBase"/><linearGradient id="linearGradient3190" x1="280" x2="280" y1="157" y2="487" gradientTransform="translate(98,172)" gradientUnits="userSpaceOnUse" xlink:href="#gradientBase"/></defs><g id="g3988"><rect id="rect3192" width="587.523" height="418.716" x="58.469" y="153.631" style="fill:#fff;stroke:none;stroke-width:24;stroke-miterlimit:4;stroke-opacity:1;stroke-dasharray:none;stroke-dashoffset:0;fill-opacity:1"/><rect style="fill:url(#linearGradient3190);fill-opacity:1;stroke:#868686;stroke-width:3;stroke-opacity:1" id="rect24" width="500" height="340" x="100" y="200" ry="0"/><rect style="fill:none;stroke:#868686;stroke-width:3;stroke-dasharray:6,6" id="rect26" width="500" height="170" x="100" y="200" ry="0"/><rect style="fill:none;stroke:#868686;stroke-width:3;stroke-dasharray:6,6" id="rect28" width="250" height="340" x="100" y="200" ry="0"/><text id="text32" x="-88" y="58" transform="matrix(0,-1,1,0,0,0)"><tspan id="tspan34" x="-406" y="86" style="font-size:14px;font-family:Bitstream Vera Sans">Maturité</tspan></text><text id="text36" x="58" y="88"><tspan id="tspan38" x="254" y="559" style="font-size:14px;font-family:Bitstream Vera Sans">Couverture fonctionnelle</tspan></text><path id="path40" d="m 100,540 c 528,0 528,0 528,0" style="fill-opacity:.75;stroke:#000;stroke-width:3;stroke-opacity:1;marker-end:url(#Arrow2Lend)"/><path id="path42" d="m 100,540 c 0,-370 0,-370 0,-370" style="fill-opacity:.75;stroke:#000;stroke-width:3;stroke-opacity:1;marker-end:url(#Arrow2Mend)"/><path style="fill:#fcdea2;fill-opacity:.5;stroke:#000;stroke-width:2;stroke-opacity:1" id="path48" d="m 396.30973,308.04306 a 57,21 0 1 1 114,0 57,21 0 0 1 -114,0 z"/><text id="text50" x="453.31" y="308.043"><tspan style="font-size:10px;text-anchor:middle;font-family:Bitstream Vera Sans" id="tspan52" x="453.31" y="310.743">Logiciel C</tspan></text><a id="a56" transform="translate(238.12369,448.22355)" xlink:href="show.php?lang=&amp;id[]=OpenNMS-1.6.7_fr.qsos&amp;svg=yes"><path id="path58" d="M -57,0 A 57,21 0 1 1 57,0 57,21 0 1 1 -57,0 z" style="fill:#fcdea2;fill-opacity:.5;stroke:#000;stroke-width:2;stroke-opacity:1"/><text id="text60"><tspan id="tspan62" x="0" y="2.7" style="font-size:10px;text-anchor:middle;font-family:Bitstream Vera Sans">Logiciel B</tspan></text></a><a id="a66" transform="translate(366.72643,327.28888)" xlink:href="show.php?lang=&amp;id[]=Zabbix-1.4.6_fr.qsos&amp;svg=yes"><path id="path68" d="M -57,0 A 57,21 0 1 1 57,0 57,21 0 1 1 -57,0 z" style="fill:#fcdea2;fill-opacity:.5;stroke:#000;stroke-width:2;stroke-opacity:1"/><text id="text70"><tspan id="tspan72" x="0" y="2.7" style="font-size:10px;text-anchor:middle;font-family:Bitstream Vera Sans">Logiciel A</tspan></text></a></g></svg>