<svg xmlns="http://www.w3.org/2000/svg" xmlns:svg="http://www.w3.org/2000/svg" id="svg2" width="100%" height="100%" version="1.1"><metadata id="metadata174"/><g id="g3038"><rect id="rect3036" width="538.384" height="351.515" x="136.364" y="255.392" style="fill:#fff;fill-opacity:1;stroke:none"/><g id="g3309"><g id="g3301" transform="translate(691.91919,182.82828)"><text id="text6" x="-109.596" y="133.838" font-size="12" font-weight="bold" style="font-size:12px;font-weight:700;font-family:Verdana"><tspan id="tspan8" style="fill:red">Logiciel A</tspan></text><text id="text3233" x="-109.297" y="149.646" font-size="12" font-weight="bold" style="font-size:12px;font-weight:700;font-family:Verdana"><tspan id="tspan3235" style="fill:#00f">Logiciel B</tspan></text><text id="text3240" x="-109.08" y="165.455" font-size="12" font-weight="bold" style="font-size:12px;font-weight:700;font-family:Verdana"><tspan id="tspan3242" style="fill:green">Logiciel C</tspan></text></g><text style="font-size:12px;font-weight:700;font-family:Verdana" id="text3246" x="434.848" y="293.434" font-size="12" font-weight="bold">Maturité</text><circle style="fill:none;stroke:#d3d3d3;stroke-width:1" id="circle26" cx="500" cy="300" r="35" d="m 535,300 c 0,19.32997 -15.67003,35 -35,35 -19.32997,0 -35,-15.67003 -35,-35 0,-19.32997 15.67003,-35 35,-35 19.32997,0 35,15.67003 35,35 z" transform="translate(-109.59596,133.83838)"/><text style="font-size:12px;fill:#d3d3d3;font-family:Verdana" id="text28" x="400.404" y="448.838" font-size="12">0.5</text><circle style="fill:none;stroke:#d3d3d3;stroke-width:1" id="circle30" cx="500" cy="300" r="70" d="m 570,300 c 0,38.65993 -31.34007,70 -70,70 -38.65993,0 -70,-31.34007 -70,-70 0,-38.65993 31.34007,-70 70,-70 38.65993,0 70,31.34007 70,70 z" transform="translate(-109.59596,133.83838)"/><text style="font-size:12px;fill:#d3d3d3;font-family:Verdana" id="text32" x="445.404" y="448.838" font-size="12">1</text><circle style="fill:none;stroke:#d3d3d3;stroke-width:1" id="circle34" cx="500" cy="300" r="105" d="m 605,300 c 0,57.9899 -47.0101,105 -105,105 -57.9899,0 -105,-47.0101 -105,-105 0,-57.9899 47.0101,-105 105,-105 57.9899,0 105,47.0101 105,105 z" transform="translate(-109.59596,133.83838)"/><text style="font-size:12px;fill:#d3d3d3;font-family:Verdana" id="text36" x="470.404" y="448.838" font-size="12">1.5</text><circle style="fill:none;stroke:#d3d3d3;stroke-width:1" id="circle38" cx="500" cy="300" r="140" d="m 640,300 c 0,77.31986 -62.68014,140 -140,140 -77.31986,0 -140,-62.68014 -140,-140 0,-77.31986 62.68014,-140 140,-140 77.31986,0 140,62.68014 140,140 z" transform="translate(-109.59596,133.83838)"/><text style="font-size:12px;fill:#d3d3d3;font-family:Verdana" id="text40" x="515.404" y="448.838" font-size="12">2</text><line style="stroke:#d3d3d3;stroke-width:1" id="line42" x1="390.404" x2="433.666" y1="433.838" y2="566.986"/><line style="stroke:#d3d3d3;stroke-width:1" id="line44" x1="390.404" x2="277.142" y1="433.838" y2="516.128"/><line style="stroke:#d3d3d3;stroke-width:1" id="line46" x1="390.404" x2="277.142" y1="433.838" y2="351.548"/><line style="stroke:#d3d3d3;stroke-width:1" id="line48" x1="390.404" x2="433.666" y1="433.838" y2="300.69"/><line style="stroke:#d3d3d3;stroke-width:1" id="line50" x1="390.404" x2="530.404" y1="433.838" y2="433.838"/><path style="fill:red;fill-opacity:.2;stroke:red;stroke-width:3" id="path72" d="m 421.33664,529.03914 -101.72159,-43.76955 -4.53049,-106.15402 107.76626,-45.13812 60.65322,99.86093 z"/><circle style="fill:none;stroke:#d3d3d3;stroke-width:1" id="circle74" cx="500" cy="300" r="35" d="m 535,300 c 0,19.32997 -15.67003,35 -35,35 -19.32997,0 -35,-15.67003 -35,-35 0,-19.32997 15.67003,-35 35,-35 19.32997,0 35,15.67003 35,35 z" transform="translate(-109.59596,133.83838)"/><text style="font-size:12px;fill:#d3d3d3;font-family:Verdana" id="text76" x="400.404" y="448.838" font-size="12">0.5</text><circle style="fill:none;stroke:#d3d3d3;stroke-width:1" id="circle78" cx="500" cy="300" r="70" d="m 570,300 c 0,38.65993 -31.34007,70 -70,70 -38.65993,0 -70,-31.34007 -70,-70 0,-38.65993 31.34007,-70 70,-70 38.65993,0 70,31.34007 70,70 z" transform="translate(-109.59596,133.83838)"/><text style="font-size:12px;fill:#d3d3d3;font-family:Verdana" id="text80" x="445.404" y="448.838" font-size="12">1</text><circle style="fill:none;stroke:#d3d3d3;stroke-width:1" id="circle82" cx="500" cy="300" r="105" d="m 605,300 c 0,57.9899 -47.0101,105 -105,105 -57.9899,0 -105,-47.0101 -105,-105 0,-57.9899 47.0101,-105 105,-105 57.9899,0 105,47.0101 105,105 z" transform="translate(-109.59596,133.83838)"/><text style="font-size:12px;fill:#d3d3d3;font-family:Verdana" id="text84" x="470.404" y="448.838" font-size="12">1.5</text><circle style="fill:none;stroke:#d3d3d3;stroke-width:1" id="circle86" cx="500" cy="300" r="140" d="m 640,300 c 0,77.31986 -62.68014,140 -140,140 -77.31986,0 -140,-62.68014 -140,-140 0,-77.31986 62.68014,-140 140,-140 77.31986,0 140,62.68014 140,140 z" transform="translate(-109.59596,133.83838)"/><text style="font-size:12px;fill:#d3d3d3;font-family:Verdana" id="text88" x="515.404" y="448.838" font-size="12">2</text><line style="stroke:#d3d3d3;stroke-width:1" id="line90" x1="390.404" x2="433.666" y1="433.838" y2="566.986"/><line style="stroke:#d3d3d3;stroke-width:1" id="line92" x1="390.404" x2="277.142" y1="433.838" y2="516.128"/><line style="stroke:#d3d3d3;stroke-width:1" id="line94" x1="390.404" x2="277.142" y1="433.838" y2="351.548"/><line style="stroke:#d3d3d3;stroke-width:1" id="line96" x1="390.404" x2="433.666" y1="433.838" y2="300.69"/><line style="stroke:#d3d3d3;stroke-width:1" id="line98" x1="390.404" x2="530.404" y1="433.838" y2="433.838"/><path style="fill:#00f;fill-opacity:.2;stroke:#00f;stroke-width:3" id="path120" d="m 424.36501,538.35949 -104.74996,-53.0899 4.5305,-99.57082 87.88968,-18.43435 48.36881,66.57396 z"/><circle style="fill:none;stroke:#d3d3d3;stroke-width:1" id="circle122" cx="500" cy="300" r="35" d="m 535,300 c 0,19.32997 -15.67003,35 -35,35 -19.32997,0 -35,-15.67003 -35,-35 0,-19.32997 15.67003,-35 35,-35 19.32997,0 35,15.67003 35,35 z" transform="translate(-109.59596,133.83838)"/><text style="font-size:12px;fill:#d3d3d3;font-family:Verdana" id="text124" x="400.404" y="448.838" font-size="12">0.5</text><circle style="fill:none;stroke:#d3d3d3;stroke-width:1" id="circle126" cx="500" cy="300" r="70" d="m 570,300 c 0,38.65993 -31.34007,70 -70,70 -38.65993,0 -70,-31.34007 -70,-70 0,-38.65993 31.34007,-70 70,-70 38.65993,0 70,31.34007 70,70 z" transform="translate(-109.59596,133.83838)"/><text style="font-size:12px;fill:#d3d3d3;font-family:Verdana" id="text128" x="445.404" y="448.838" font-size="12">1</text><circle style="fill:none;stroke:#d3d3d3;stroke-width:1" id="circle130" cx="500" cy="300" r="105" d="m 605,300 c 0,57.9899 -47.0101,105 -105,105 -57.9899,0 -105,-47.0101 -105,-105 0,-57.9899 47.0101,-105 105,-105 57.9899,0 105,47.0101 105,105 z" transform="translate(-109.59596,133.83838)"/><text style="font-size:12px;fill:#d3d3d3;font-family:Verdana" id="text132" x="470.404" y="448.838" font-size="12">1.5</text><circle style="fill:none;stroke:#d3d3d3;stroke-width:1" id="circle134" cx="500" cy="300" r="140" d="m 640,300 c 0,77.31986 -62.68014,140 -140,140 -77.31986,0 -140,-62.68014 -140,-140 0,-77.31986 62.68014,-140 140,-140 77.31986,0 140,62.68014 140,140 z" transform="translate(-109.59596,133.83838)"/><text style="font-size:12px;fill:#d3d3d3;font-family:Verdana" id="text136" x="515.404" y="448.838" font-size="12">2</text><line style="stroke:#d3d3d3;stroke-width:1" id="line138" x1="390.404" x2="433.666" y1="433.838" y2="566.986"/><line style="stroke:#d3d3d3;stroke-width:1" id="line140" x1="390.404" x2="277.142" y1="433.838" y2="516.128"/><line style="stroke:#d3d3d3;stroke-width:1" id="line142" x1="390.404" x2="277.142" y1="433.838" y2="351.548"/><line style="stroke:#d3d3d3;stroke-width:1" id="line144" x1="390.404" x2="433.666" y1="433.838" y2="300.69"/><line style="stroke:#d3d3d3;stroke-width:1" id="line146" x1="390.404" x2="530.404" y1="433.838" y2="433.838"/><path style="fill:green;fill-opacity:.2;stroke:green;stroke-width:3" id="path168" d="m 421.33664,529.03914 -101.72159,-43.76955 4.5305,-99.57082 98.70527,-51.72132 60.65322,99.86093 z"/><text style="font-size:12px;font-weight:700;font-family:Verdana" id="text3246-4" x="536.893" y="432.939" font-size="12" font-weight="bold">Axe fonctionnel 1</text><text style="font-size:12px;font-weight:700;font-family:Verdana" id="text3246-4-7" x="439.492" y="581.09" font-size="12" font-weight="bold">Axe fonctionnel 2</text><text style="font-size:12px;font-weight:700;font-family:Verdana" id="text3246-4-4" x="152.623" y="527.555" font-size="12" font-weight="bold">Axe fonctionnel 3</text><text style="font-size:12px;font-weight:700;font-family:Verdana" id="text3246-4-43" x="154.643" y="348.767" font-size="12" font-weight="bold">Axe fonctionnel 4</text></g></g></svg>